<svg xmlns="http://www.w3.org/2000/svg" width="512" height="512" viewBox="0 0 24 24" fill="none"  class="lucide lucide-waves">
  <rect width="24" height="24" fill="#8080FF"></rect>
  <g transform="translate(0.7,0.7) scale(0.94)" stroke="#000060" stroke-width="2" stroke-linecap="round" stroke-linejoin="round">
    <path d="M2 6c.6.5 1.2 1 2.5 1C7 7 7 5 9.5 5c2.6 0 2.4 2 5 2 2.5 0 2.5-2 5-2 1.3 0 1.9.5 2.5 1"/>
    <path d="M2 12c.6.5 1.2 1 2.5 1 2.5 0 2.5-2 5-2 2.6 0 2.4 2 5 2 2.5 0 2.5-2 5-2 1.3 0 1.9.5 2.5 1"/>
    <path d="M2 18c.6.5 1.2 1 2.5 1 2.5 0 2.5-2 5-2 2.6 0 2.4 2 5 2 2.5 0 2.5-2 5-2 1.3 0 1.9.5 2.5 1"/>
  </g>
</svg>